<svg>
	<defs>
		<g name="print">
			<path transform="scale(0.1,-0.1) translate(0,-1536)" unicode="&#xf02f;" horiz-adv-x="1664"  d="M384 0h896v256h-896v-256zM384 640h896v384h-160q-40 0 -68 28t-28 68v160h-640v-640zM1536 576q0 26 -19 45t-45 19t-45 -19t-19 -45t19 -45t45 -19t45 19t19 45zM1664 576v-416q0 -13 -9.5 -22.5t-22.5 -9.5h-224v-160q0 -40 -28 -68t-68 -28h-960q-40 0 -68 28t-28 68 v160h-224q-13 0 -22.5 9.5t-9.5 22.5v416q0 79 56.5 135.5t135.5 56.5h64v544q0 40 28 68t68 28h672q40 0 88 -20t76 -48l152 -152q28 -28 48 -76t20 -88v-256h64q79 0 135.5 -56.5t56.5 -135.5z" />
		</g>
		<g name="envelope">
			<path transform="scale(0.1,-0.1) translate(0,-1536)" unicode="&#xf0e0;" horiz-adv-x="1792" d="M1792 826v-794q0 -66 -47 -113t-113 -47h-1472q-66 0 -113 47t-47 113v794q44 -49 101 -87q362 -246 497 -345q57 -42 92.5 -65.5t94.5 -48t110 -24.5h1h1q51 0 110 24.5t94.5 48t92.5 65.5q170 123 498 345q57 39 100 87zM1792 1120q0 -79 -49 -151t-122 -123 q-376 -261 -468 -325q-10 -7 -42.5 -30.5t-54 -38t-52 -32.5t-57.5 -27t-50 -9h-1h-1q-23 0 -50 9t-57.5 27t-52 32.5t-54 38t-42.5 30.5q-91 64 -262 182.5t-205 142.5q-62 42 -117 115.5t-55 136.5q0 78 41.5 130t118.5 52h1472q65 0 112.5 -47t47.5 -113z" />
		</g>
	</defs>
</svg>