<svg xmlns="http://www.w3.org/2000/svg" viewBox="0 0 179.2 140.8">
    <title>Envelope</title>
    <desc>A envelope</desc>
    <path d="M179.2 45.4v79.4c0 4.4-1.6 8.2-4.7 11.3-3.1 3.1-6.9 4.7-11.3 4.7H16c-4.4 0-8.2-1.6-11.3-4.7S0 129.2 0 124.8V45.4c2.9 3.3 6.3 6.2 10.1 8.7C34.2 70.5 50.8 82 59.8 88.6c3.8 2.8 6.9 5 9.3 6.6s5.5 3.2 9.4 4.8c3.9 1.6 7.6 2.4 11 2.4h.2c3.4 0 7.1-.8 11-2.4 3.9-1.6 7.1-3.2 9.4-4.8s5.4-3.8 9.2-6.6c11.3-8.2 27.9-19.7 49.8-34.5 3.9-2.6 7.2-5.5 10.1-8.7zm0-29.4c0 5.3-1.6 10.3-4.9 15.1S167 40 162.1 43.4c-25.1 17.4-40.7 28.2-46.8 32.5-.7.5-2.1 1.5-4.2 3.1s-4 2.8-5.4 3.8-3.2 2.1-5.2 3.2c-2 1.2-4 2.1-5.8 2.7-1.8.6-3.5.9-5 .9h-.2c-1.5 0-3.2-.3-5-.9-1.8-.6-3.7-1.5-5.8-2.7-2-1.2-3.8-2.3-5.2-3.2-1.4-1-3.2-2.2-5.4-3.8s-3.6-2.6-4.2-3.1c-6.1-4.3-14.8-10.3-26.2-18.2S19.5 45 17.2 43.4c-4.1-2.8-8-6.7-11.7-11.6S0 22.4 0 18.2c0-5.2 1.4-9.5 4.2-13S10.9 0 16 0h147.2c4.3 0 8.1 1.6 11.2 4.7 3.2 3.1 4.8 6.9 4.8 11.3z"/>
</svg>