<svg xmlns="http://www.w3.org/2000/svg" viewBox="0 0 166.4 153.6">
    <title>Print Icon</title>
    <desc>A print icon</desc>
    <path d="M38.4 140.8H128v-25.6H38.4v25.6zm0-64H128V38.4h-16c-2.7 0-4.9-.9-6.8-2.8-1.9-1.9-2.8-4.1-2.8-6.8v-16h-64v64zm115.2 6.4c0-1.7-.6-3.2-1.9-4.5-1.3-1.3-2.8-1.9-4.5-1.9s-3.2.6-4.5 1.9c-1.3 1.3-1.9 2.8-1.9 4.5 0 1.7.6 3.2 1.9 4.5 1.3 1.3 2.8 1.9 4.5 1.9s3.2-.6 4.5-1.9c1.3-1.3 1.9-2.8 1.9-4.5zm12.8 0v41.6c0 .9-.3 1.6-1 2.2-.6.6-1.4.9-2.2.9h-22.4v16c0 2.7-.9 4.9-2.8 6.8-1.9 1.9-4.1 2.8-6.8 2.8h-96c-2.7 0-4.9-.9-6.8-2.8-1.9-1.9-2.8-4.1-2.8-6.8v-16H3.2c-.9 0-1.6-.3-2.2-.9s-1-1.3-1-2.2V83.2c0-5.3 1.9-9.8 5.7-13.6S13.9 64 19.2 64h6.4V9.6c0-2.7.9-4.9 2.8-6.8C30.3.9 32.5 0 35.2 0h67.2c2.7 0 5.6.7 8.8 2 3.2 1.3 5.7 2.9 7.6 4.8L134 22c1.9 1.9 3.5 4.4 4.8 7.6s2 6.1 2 8.8V64h6.4c5.3 0 9.8 1.9 13.6 5.7s5.6 8.2 5.6 13.5z"/>
</svg>