<?xml version="1.0" encoding="utf-8"?>
<!DOCTYPE svg PUBLIC "-//W3C//DTD SVG 1.1//EN" "http://www.w3.org/Graphics/SVG/1.1/DTD/svg11.dtd">
<svg xmlns="http://www.w3.org/2000/svg" xmlns:xlink="http://www.w3.org/1999/xlink" version="1.1" x="0px" y="0px" width="296px" height="335px" viewBox="0 0 296 335" enable-background="new 0 0 296 335" xml:space="preserve">
<g transform="translate(24, 214)">
	<g>
		<path fill="#2BA9E0" d="M115.298-6.622c-29.125 0-52.731 23.606-52.731 52.724c0 29.1 23.6 52.7 52.7 52.7 c29.111 0 52.717-23.61 52.717-52.728C168.016 17 144.409-6.622 115.298-6.622z"/>
	</g>
	<g>
		<path fill="#2BA9E0" d="M180.858-16.681c15.622 16.3 25.2 38.4 25.2 62.782c0 30.857-15.41 58.104-38.935 74.5 c43.482-13.416 79.46-46.099 95.566-85.688c22.27-54.76 1.535-95.981-33.278-133.35c1.06 4.8 1.7 9.9 1.7 15 C231.105-51.728 209.855-25.012 180.858-16.681z"/>
	</g>
	<g>
		<path fill="#2BA9E0" d="M121.316-83.42c0 22.3 18.1 40.3 40.3 40.331S201.98-61.146 201.98-83.42 c0-22.27-18.055-40.325-40.327-40.325S121.316-105.69 121.316-83.42z"/>
	</g>
	<g>
		<path fill="#2BA9E0" d="M45.84 104.572c-13.32-15.801-21.346-36.19-21.346-58.471c0-46.479 34.933-84.773 79.968-90.129 C96.734-55.226 92.196-68.793 92.196-83.42c0-38.352 31.091-69.448 69.458-69.448c3.167 0 6.3 0.2 9.3 0.6 c-22.721-19.609-45.392-39.496-63.287-61.24c9.14 95.217-86.72 60.619-122.156 148.361C-38.243-6.232-16.81 66.5 45.8 104.572z "/>
	</g>
</g>
</svg>
