<?xml version="1.0" encoding="UTF-8" standalone="no"?>
<!-- Created with Inkscape (http://www.inkscape.org/) -->

<svg
   xmlns:dc="http://purl.org/dc/elements/1.1/"
   xmlns:cc="http://creativecommons.org/ns#"
   xmlns:rdf="http://www.w3.org/1999/02/22-rdf-syntax-ns#"
   xmlns:svg="http://www.w3.org/2000/svg"
   xmlns="http://www.w3.org/2000/svg"
   xmlns:inkscape="http://www.inkscape.org/namespaces/inkscape"
   version="1.1"
   width="40"
   height="640"
   id="svg2"
   xml:space="preserve"><metadata
     id="metadata8"><rdf:RDF><cc:Work
         rdf:about=""><dc:format>image/svg+xml</dc:format><dc:type
           rdf:resource="http://purl.org/dc/dcmitype/StillImage" /></cc:Work></rdf:RDF></metadata><defs
     id="defs6"><clipPath
       id="clipPath16"><path
         d="M 0,512 32,512 32,0 0,0 0,512 z"
         inkscape:connector-curvature="0"
         id="path18" /></clipPath></defs><g
     transform="matrix(1.25,0,0,-1.25,0,640)"
     id="g10"><g
       id="g12"><g
         clip-path="url(#clipPath16)"
         id="g14"><g
           transform="translate(16.9968,420.1957)"
           id="g20"><path
             d="m 0,0 0,10.268 3.242,0 0,3.766 L 0,14.051 0,16.753 c 0,0.63 0.563,1.642 1.703,1.642 l 2.052,0.001 0.028,3.761 -3.243,0 c -2.958,0 -4.863,-2.088 -4.863,-5.404 l 0,-2.702 -3.243,-0.017 0,-3.766 3.243,0 L -4.323,0 0,0 z"
             inkscape:connector-curvature="0"
             id="path22"
             style="fill:#ffffff;fill-opacity:1;fill-rule:nonzero;stroke:none" /></g><g
           transform="translate(15.9568,390.0103)"
           id="g24"><path
             d="M 0,0 C -2.511,-0.17 -4.647,1.177 -4.771,3.008 -4.895,4.84 -3.163,6.181 -0.652,6.351 1.859,6.521 4.199,5.456 4.323,3.624 4.447,1.792 2.511,0.17 0,0 m -3.53,14.408 c -0.569,2.094 0.596,4.302 2.091,4.709 C 0.057,19.524 1.731,18.156 2.3,16.062 2.87,13.967 2.12,11.94 0.624,11.533 -0.872,11.126 -2.96,12.314 -3.53,14.408 m 5.671,-4.316 c 0,1.417 3.117,1.828 3.117,5.158 0,1.998 -0.184,3.203 -1.757,3.911 0,0.496 2.753,0.076 2.753,1.002 l -6.331,0 c 0,0 -5.755,0.036 -5.755,-5.179 0,-5.215 5.252,-4.703 5.252,-4.703 l 0,-1.322 c 0,-0.534 0.723,-0.355 0.812,-1.436 -0.364,0 -7.215,0.098 -7.215,-4.625 0,-4.723 6.006,-4.406 6.006,-4.406 0,0 7.255,-0.331 7.255,5.535 0,3.515 -4.137,4.648 -4.137,6.065"
             inkscape:connector-curvature="0"
             id="path26"
             style="fill:#ffffff;fill-opacity:1;fill-rule:nonzero;stroke:none" /></g><g
           transform="translate(13.1684,358.8094)"
           id="g28"><path
             d="M 0,0 C -2.462,-0.167 -4.556,1.153 -4.677,2.949 -4.799,4.745 -3.101,6.06 -0.639,6.227 1.823,6.393 4.117,5.349 4.238,3.553 4.36,1.757 2.462,0.167 0,0 m -3.461,14.126 c -0.558,2.053 0.584,4.217 2.051,4.616 1.466,0.399 3.107,-0.942 3.665,-2.995 0.559,-2.054 -0.177,-4.042 -1.643,-4.441 -1.467,-0.398 -3.514,0.766 -4.073,2.82 m 5.56,-4.232 c 0,1.389 3.056,1.792 3.056,5.057 0,1.959 -0.181,3.14 -1.723,3.834 0,0.487 2.699,0.075 2.699,0.983 l -6.206,0 c 0,0 -5.642,0.034 -5.642,-5.078 0,-5.112 5.148,-4.61 5.148,-4.61 l 0,-1.297 c 0,-0.523 0.709,-0.347 0.797,-1.408 -0.357,0 -7.074,0.097 -7.074,-4.534 0,-4.63 5.888,-4.32 5.888,-4.32 0,0 7.113,-0.324 7.113,5.427 0,3.446 -4.056,4.557 -4.056,5.946"
             inkscape:connector-curvature="0"
             id="path30"
             style="fill:#ffffff;fill-opacity:1;fill-rule:nonzero;stroke:none" /></g><g
           transform="translate(23.6099,365.6465)"
           id="g32"><path
             d="m 0,0 -1.671,-0.046 0,6.206 L 0,6.139 0,0 z"
             inkscape:connector-curvature="0"
             id="path34"
             style="fill:#ffffff;fill-opacity:1;fill-rule:nonzero;stroke:none" /></g><path
           d="m 25.888,367.857 -6.206,0 0,1.693 6.206,0 0,-1.693 z"
           inkscape:connector-curvature="0"
           id="path36"
           style="fill:#ffffff;fill-opacity:1;fill-rule:nonzero;stroke:none" /><g
           transform="translate(9.3649,344.6712)"
           id="g38"><path
             d="m 0,0 c 1.169,0 2.119,-0.95 2.119,-2.119 0,-1.17 -0.95,-2.12 -2.119,-2.12 -1.172,0 -2.119,0.95 -2.119,2.12 C -2.119,-0.95 -1.172,0 0,0 m -1.932,-5.649 3.506,0 0,-12.022 -3.506,0 0,12.022 z"
             inkscape:connector-curvature="0"
             id="path40"
             style="fill:#ffffff;fill-opacity:1;fill-rule:nonzero;stroke:none" /></g><g
           transform="translate(13.4861,339.022)"
           id="g42"><path
             d="m 0,0 3.464,0 0,-2.004 0.093,0.199 c 0.488,0.925 1.635,2.306 3.413,2.306 3.699,0 4.509,-2.843 4.509,-6.011 l 0,-6.512 -3.507,0 0,6.011 c 0,1.365 -0.031,3.006 -2.003,3.006 -2.039,0 -2.505,-1.096 -2.505,-3.006 l 0,-6.011 L 0,-11.96 0,0 z"
             inkscape:connector-curvature="0"
             id="path44"
             style="fill:#ffffff;fill-opacity:1;fill-rule:nonzero;stroke:none" /></g><g
           transform="translate(11.0737,241.4751)"
           id="g46"><path
             d="m 0,0 c 0,-1.518 -1.23,-2.748 -2.748,-2.748 -1.518,0 -2.749,1.23 -2.749,2.748 0,1.518 1.231,2.748 2.749,2.748 C -1.23,2.748 0,1.518 0,0"
             inkscape:connector-curvature="0"
             id="path48"
             style="fill:#ffffff;fill-opacity:1;fill-rule:nonzero;stroke:none" /></g><g
           transform="translate(18.3543,242.2439)"
           id="g50"><path
             d="m 0,0 c 0,-1.698 -1.376,-3.074 -3.074,-3.074 -1.698,0 -3.074,1.376 -3.074,3.074 0,1.698 1.376,3.074 3.074,3.074 C -1.376,3.074 0,1.698 0,0"
             inkscape:connector-curvature="0"
             id="path52"
             style="fill:#ffffff;fill-opacity:1;fill-rule:nonzero;stroke:none" /></g><g
           transform="translate(26.4323,243.0667)"
           id="g54"><path
             d="m 0,0 c 0,-1.877 -1.51,-3.399 -3.372,-3.399 -1.862,0 -3.372,1.522 -3.372,3.399 0,1.877 1.51,3.399 3.372,3.399 C -1.51,3.399 0,1.877 0,0"
             inkscape:connector-curvature="0"
             id="path56"
             style="fill:#ffffff;fill-opacity:1;fill-rule:nonzero;stroke:none" /></g><g
           transform="translate(5.2215,233.8562)"
           id="g58"><path
             d="m 0,0 c 0,-0.218 0.146,-0.362 0.359,-0.362 l 5.321,0 c 0.214,0 0.359,0.142 0.359,0.362 l 0,1.165 C 6.039,2.882 4.756,4.427 3.104,4.427 1.294,4.427 0,2.644 0,1.165 L 0,0 z"
             inkscape:connector-curvature="0"
             id="path60"
             style="fill:#ffffff;fill-opacity:1;fill-rule:nonzero;stroke:none" /></g><g
           transform="translate(11.7914,233.7613)"
           id="g62"><path
             d="m 0,0 c 0,-0.214 0.144,-0.355 0.356,-0.355 l 6.265,0 c 0.212,0 0.356,0.139 0.356,0.355 l 0,1.286 C 6.977,2.972 5.676,4.877 3.459,4.877 1.725,4.877 0,3.251 0,1.286 L 0,0 z"
             inkscape:connector-curvature="0"
             id="path64"
             style="fill:#ffffff;fill-opacity:1;fill-rule:nonzero;stroke:none" /></g><g
           transform="translate(19.3199,233.772)"
           id="g66"><path
             d="m 0,0 c 0,-0.216 0.145,-0.359 0.358,-0.359 l 6.657,-0.007 c 0.213,0 0.444,0.23 0.444,0.448 L 7.458,1.851 c 0,2.001 -1.563,3.504 -3.676,3.504 -1.771,0 -3.825,-1.551 -3.825,-3.892 L 0,0 z"
             inkscape:connector-curvature="0"
             id="path68"
             style="fill:#ffffff;fill-opacity:1;fill-rule:nonzero;stroke:none" /></g><g
           transform="translate(25,486)"
           id="g70"><path
             d="m 0,0 -9,0 0,9 -9,0 0,10 9,0 0,-10 9,0 0,-9 z m -19,-1 20,0 0,21 -20,0 0,-21 z"
             inkscape:connector-curvature="0"
             id="path72"
             style="fill:#ffffff;fill-opacity:1;fill-rule:nonzero;stroke:none" /></g><path
           d="m 8.911,461.149 -1.277,0 0,3.832 1.277,0 0,-3.832 z m 0,8.516 0,-2.981 -3.406,0 0,-7.238 5.535,0 0,10.219 -2.129,0 z"
           inkscape:connector-curvature="0"
           id="path74"
           style="fill:#ffffff;fill-opacity:1;fill-rule:nonzero;stroke:none" /><path
           d="m 11.892,466.684 2.129,0 0,-7.238 -2.129,0 0,7.238 z"
           inkscape:connector-curvature="0"
           id="path76"
           style="fill:#ffffff;fill-opacity:1;fill-rule:nonzero;stroke:none" /><path
           d="m 11.892,469.665 2.129,0 0,-2.129 -2.129,0 0,2.129 z"
           inkscape:connector-curvature="0"
           id="path78"
           style="fill:#ffffff;fill-opacity:1;fill-rule:nonzero;stroke:none" /><path
           d="m 18.278,461.149 -1.277,0 0,3.832 1.277,0 0,-3.832 z m -3.406,5.535 0,-7.238 3.406,0 0,-0.851 -3.406,0 0,-1.703 5.535,0 0,9.792 -5.535,0 z"
           inkscape:connector-curvature="0"
           id="path80"
           style="fill:#ffffff;fill-opacity:1;fill-rule:nonzero;stroke:none" /><path
           d="m 24.665,461.149 -1.277,0 0,3.832 1.277,0 0,-3.832 z m -3.406,5.535 0,-7.238 3.406,0 0,-0.851 -3.406,0 0,-1.703 5.535,0 0,9.792 -5.535,0 z"
           inkscape:connector-curvature="0"
           id="path82"
           style="fill:#ffffff;fill-opacity:1;fill-rule:nonzero;stroke:none" /><g
           transform="translate(18.8011,302.2167)"
           id="g84"><path
             d="M 0,0 -0.766,-0.771 C -1.098,-1.105 -1.55,-1.293 -2.022,-1.293 l -1.503,0 c -0.47,0 -0.92,0.186 -1.253,0.518 l -0.784,0.785 -7.127,-5.686 19.776,0 L 0,0 z"
             inkscape:connector-curvature="0"
             id="path86"
             style="fill:#ffffff;fill-opacity:1;fill-rule:nonzero;stroke:none" /></g><g
           transform="translate(6.1119,310.6229)"
           id="g88"><path
             d="m 0,0 8.654,-7.389 c 0.332,-0.332 0.783,-0.519 1.253,-0.519 l 0.014,0 c 0.472,0 0.924,0.189 1.257,0.523 L 19.776,-0.004 0,0 z"
             inkscape:connector-curvature="0"
             id="path90"
             style="fill:#ffffff;fill-opacity:1;fill-rule:nonzero;stroke:none" /></g><g
           transform="translate(20.0642,303.488)"
           id="g92"><path
             d="m 0,0 5.824,-6.947 0,14.078 L 0,0 z"
             inkscape:connector-curvature="0"
             id="path94"
             style="fill:#ffffff;fill-opacity:1;fill-rule:nonzero;stroke:none" /></g><g
           transform="translate(11.9721,303.4935)"
           id="g96"><path
             d="m 0,0 -5.86,7.129 0,-14.082 L 0,0 z"
             inkscape:connector-curvature="0"
             id="path98"
             style="fill:#ffffff;fill-opacity:1;fill-rule:nonzero;stroke:none" /></g><g
           transform="translate(22.7446,269.875)"
           id="g100"><path
             d="m 0,0 c -0.758,0 -1.444,-0.3 -1.952,-0.784 l -4.914,2.265 c 0.055,0.262 0.089,0.531 0.089,0.81 0,0.561 -0.115,1.09 -0.31,1.58 l 2.671,1.797 c 0.647,-0.53 1.465,-0.855 2.367,-0.855 2.089,0 3.782,1.693 3.782,3.782 0,2.089 -1.693,3.782 -3.782,3.782 -2.089,0 -3.782,-1.693 -3.782,-3.782 0,-0.402 0.075,-0.783 0.195,-1.144 L -8.341,5.632 c -0.767,0.661 -1.755,1.072 -2.848,1.072 -0.257,0 -0.505,-0.031 -0.748,-0.078 l -0.804,1.91 c 0.24,0.326 0.385,0.726 0.385,1.162 0,1.096 -0.889,1.985 -1.985,1.985 -1.096,0 -1.985,-0.889 -1.985,-1.985 0,-0.952 0.672,-1.746 1.567,-1.939 l 0.852,-2.023 c -1.026,-0.804 -1.695,-2.039 -1.695,-3.445 0,-2.058 1.416,-3.765 3.324,-4.25 l 0.175,-3.63 c -0.548,-0.351 -0.913,-0.961 -0.913,-1.66 0,-1.096 0.888,-1.985 1.984,-1.985 1.097,0 1.985,0.889 1.985,1.985 0,0.691 -0.356,1.295 -0.892,1.649 l -0.175,3.634 c 0.934,0.234 1.744,0.765 2.333,1.49 l 4.951,-2.283 c -10e-4,-0.026 -0.007,-0.051 -0.007,-0.078 0,-1.566 1.27,-2.836 2.837,-2.836 1.567,0 2.837,1.27 2.837,2.836 C 2.837,-1.27 1.567,0 0,0"
             inkscape:connector-curvature="0"
             id="path102"
             style="fill:#ffffff;fill-opacity:1;fill-rule:nonzero;stroke:none" /></g><g
           transform="translate(16.2563,219.1281)"
           id="g104"><path
             d="m 0,0 c -6.342,0 -9.539,-4.53 -9.539,-8.308 0,-2.287 0.869,-4.322 2.733,-5.08 0.306,-0.125 0.58,-0.005 0.668,0.333 0.062,0.233 0.208,0.822 0.273,1.067 0.089,0.333 0.054,0.45 -0.192,0.741 -0.538,0.632 -0.881,1.45 -0.881,2.608 0,3.361 2.524,6.369 6.572,6.369 3.584,0 5.553,-2.182 5.553,-5.096 0,-3.835 -1.703,-7.071 -4.231,-7.071 -1.397,0 -2.442,1.151 -2.107,2.562 0.401,1.685 1.178,3.503 1.178,4.719 0,1.088 -0.586,1.996 -1.8,1.996 -1.427,0 -2.574,-1.471 -2.574,-3.442 0,-1.255 0.426,-2.104 0.426,-2.104 0,0 -1.461,-6.167 -1.717,-7.247 -0.51,-2.151 -0.077,-4.787 -0.04,-5.054 0.021,-0.157 0.225,-0.195 0.317,-0.075 0.132,0.171 1.832,2.262 2.41,4.351 0.163,0.592 0.939,3.656 0.939,3.656 0.463,-0.881 1.819,-1.658 3.26,-1.658 4.291,0 7.202,3.898 7.202,9.114 C 8.45,-3.674 5.097,0 0,0"
             inkscape:connector-curvature="0"
             id="path106"
             style="fill:#ffffff;fill-opacity:1;fill-rule:nonzero;stroke:none" /></g><g
           transform="translate(5.2958,179.6803)"
           id="g108"><path
             d="m 0,0 0,-2.637 0,-5.274 2.792,-0.001 0,4.654 c 0,0.421 0.511,0.931 0.931,0.931 l 13.962,0 c 0.421,0 0.931,-0.51 0.931,-0.931 l 0,-4.654 2.792,0.001 0,5.274 0,2.637 L 0,0 z"
             inkscape:connector-curvature="0"
             id="path110"
             style="fill:#ffffff;fill-opacity:1;fill-rule:nonzero;stroke:none" /></g><path
           d="m 21.119,173.63 -9.773,0 0,0.931 9.773,0 0,-0.931 z m 0,-1.862 -9.773,0 0,0.931 9.773,0 0,-0.931 z m 0,-2.327 -9.773,0 -0.081,0.939 9.854,-0.008 0,-0.931 z m -2.792,-1.861 -6.981,0 0,0.931 6.981,0 0,-0.931 z m -7.446,-0.931 -1.397,1.862 1.397,0 0,-1.862 z m -1.862,9.308 0,-7.604 1.27,-2.148 12.692,-0.021 0,9.773 -13.962,0 z"
           inkscape:connector-curvature="0"
           id="path112"
           style="fill:#ffffff;fill-opacity:1;fill-rule:nonzero;stroke:none" /><g
           transform="translate(25.798,181.5419)"
           id="g114"><path
             d="m 0,0 -1.886,0 0.02,2.496 c 0,0.683 -0.733,1.227 -1.416,1.227 l -13.032,0 c -0.683,0 -1.396,-0.713 -1.396,-1.396 l 0,-2.327 -1.861,0 c -0.415,0 -0.753,-0.346 -0.753,-0.761 l 0,-0.114 21.095,0 0,0.114 C 0.771,-0.346 0.415,0 0,0"
             inkscape:connector-curvature="0"
             id="path116"
             style="fill:#ffffff;fill-opacity:1;fill-rule:nonzero;stroke:none" /></g><g
           transform="translate(16.1436,135.1344)"
           id="g118"><path
             d="m 0,0 c -5.33,0 -9.651,2.745 -9.651,6.13 0,3.386 4.321,6.13 9.651,6.13 l 0,0 0,0 C 5.33,12.26 9.651,9.516 9.651,6.13 9.651,2.745 5.33,0 0,0 m 8.026,17.942 c 0.723,0 1.311,-0.588 1.311,-1.311 0,-0.722 -0.588,-1.311 -1.311,-1.311 -0.722,0 -1.311,0.589 -1.311,1.311 0,0.723 0.589,1.311 1.311,1.311 m 3.78,-8.754 c 0,1.469 -1.195,2.664 -2.665,2.664 -0.695,0 -1.324,-0.274 -1.799,-0.712 -1.746,1.139 -4.081,1.87 -6.669,1.981 l 1.39,4.393 3.77,-0.887 c 0.002,-1.208 0.985,-2.19 2.193,-2.19 1.21,0 2.194,0.985 2.194,2.194 0,1.21 -0.984,2.195 -2.194,2.195 -0.904,0 -1.682,-0.551 -2.017,-1.334 L 1.867,18.467 C 1.643,18.52 1.414,18.391 1.345,18.171 l -1.593,-5.036 c -2.73,-0.043 -5.202,-0.78 -7.038,-1.961 -0.47,0.417 -1.082,0.678 -1.758,0.678 -1.47,0 -2.665,-1.195 -2.665,-2.664 0,-0.957 0.511,-1.791 1.271,-2.261 -0.045,-0.262 -0.073,-0.527 -0.073,-0.797 0,-3.867 4.715,-7.013 10.511,-7.013 5.796,0 10.511,3.146 10.511,7.013 0,0.254 -0.022,0.504 -0.062,0.75 0.806,0.459 1.357,1.316 1.357,2.308"
             inkscape:connector-curvature="0"
             id="path120"
             style="fill:#ffffff;fill-opacity:1;fill-rule:nonzero;stroke:none" /></g><g
           transform="translate(14.2757,142.5418)"
           id="g122"><path
             d="m 0,0 c 0,0.894 -0.726,1.645 -1.62,1.645 -0.895,0 -1.645,-0.751 -1.645,-1.645 0,-0.894 0.75,-1.62 1.645,-1.62 C -0.726,-1.62 0,-0.894 0,0"
             inkscape:connector-curvature="0"
             id="path124"
             style="fill:#ffffff;fill-opacity:1;fill-rule:nonzero;stroke:none" /></g><g
           transform="translate(19.7532,144.1865)"
           id="g126"><path
             d="m 0,0 c -0.895,0 -1.647,-0.75 -1.647,-1.645 0,-0.894 0.752,-1.62 1.647,-1.62 0.895,0 1.62,0.726 1.62,1.62 C 1.62,-0.75 0.895,0 0,0"
             inkscape:connector-curvature="0"
             id="path128"
             style="fill:#ffffff;fill-opacity:1;fill-rule:nonzero;stroke:none" /></g><g
           transform="translate(19.3586,138.5515)"
           id="g130"><path
             d="m 0,0 c -0.617,-0.617 -1.649,-0.917 -3.154,-0.917 -0.005,0 -0.008,-0.002 -0.013,-0.002 -0.004,0 -0.008,0.002 -0.013,0.002 -1.505,0 -2.536,0.3 -3.153,0.917 -0.172,0.172 -0.452,0.172 -0.624,0 -0.173,-0.173 -0.173,-0.452 0,-0.625 0.79,-0.79 2.026,-1.175 3.777,-1.175 0.005,0 0.009,0.003 0.013,0.003 0.005,0 0.008,-0.003 0.013,-0.003 1.751,0 2.987,0.385 3.778,1.175 C 0.797,-0.453 0.797,-0.173 0.625,0 0.452,0.172 0.173,0.172 0,0"
             inkscape:connector-curvature="0"
             id="path132"
             style="fill:#ffffff;fill-opacity:1;fill-rule:nonzero;stroke:none" /></g><g
           transform="translate(20.0166,104.951)"
           id="g134"><path
             d="m 0,0 c -0.414,-0.197 -0.999,-0.53 -1.589,-0.53 -1.413,0 -2.296,0.442 -2.12,2.649 l 0,6.887 4.769,0 0,3.179 -4.769,0 0,5.828 c 0,0 -3.044,-0.296 -3.098,-0.296 -0.053,0 -0.147,-0.047 -0.16,-0.167 -0.19,-1.735 -0.119,-4.967 -4.126,-5.998 l 0,-2.546 2.616,0 0.033,-7.449 c 0,-2.49 0.979,-5.878 5.828,-5.795 1.636,0.028 3.274,0.999 3.676,1.589 L 0,0 z"
             inkscape:connector-curvature="0"
             id="path136"
             style="fill:#ffffff;fill-opacity:1;fill-rule:nonzero;stroke:none" /></g><g
           transform="translate(26.9156,85.6898)"
           id="g138"><path
             d="m 0,0 c -0.787,-0.381 -1.625,-0.627 -2.512,-0.741 0.904,0.583 1.598,1.499 1.927,2.598 -0.846,-0.536 -1.782,-0.919 -2.78,-1.144 -0.794,0.918 -1.933,1.491 -3.186,1.491 -2.412,0 -4.367,-2.103 -4.367,-4.703 0,-0.365 0.038,-0.727 0.11,-1.066 -3.623,0.187 -6.846,2.066 -9.001,4.905 -0.452,-0.536 -0.87,-1.373 -0.87,-2.238 0,-1.627 1.215,-3.47 2.389,-4.301 -0.717,0.03 -1.801,0.665 -2.389,1.02 l 0,-0.064 c 0,-2.274 1.751,-4.338 3.749,-4.777 -0.366,-0.107 -0.753,-0.155 -1.154,-0.155 -0.28,0 -0.547,0.019 -0.816,0.083 0.553,-1.874 2.168,-3.236 4.078,-3.264 -1.495,-1.268 -3.377,-2.012 -5.424,-2.012 -0.353,0 -0.57,0.046 -0.911,0.09 1.932,-1.34 4.218,-1.911 6.69,-1.911 8.033,0 11.946,6.689 11.946,12.902 0,0.199 -0.005,0.4 -0.014,0.601 C -1.683,-2.014 -0.585,-0.941 0,0"
             inkscape:connector-curvature="0"
             id="path140"
             style="fill:#ffffff;fill-opacity:1;fill-rule:nonzero;stroke:none" /></g><g
           transform="translate(14.7568,39.0648)"
           id="g142"><path
             d="m 0,0 1.355,0 c 0,0 0.409,0.045 0.618,0.27 0.192,0.207 0.186,0.595 0.186,0.595 0,0 -0.026,1.818 0.817,2.086 0.832,0.264 1.9,-1.757 3.032,-2.534 0.856,-0.588 1.506,-0.459 1.506,-0.459 L 10.541,0 c 0,0 1.583,0.098 0.832,1.343 -0.061,0.101 -0.437,0.92 -2.25,2.603 -1.898,1.762 -1.644,1.477 0.643,4.524 1.392,1.856 1.909,2.976 1.774,3.474 -0.087,0.323 -1.317,0.288 -1.317,0.288 l -3.327,0 c -0.606,0 -0.694,-0.412 -0.694,-0.412 0,0 -0.54,-1.436 -1.259,-2.658 C 3.426,6.586 2.827,6.463 2.571,6.61 2.192,6.827 2.322,7.987 2.322,8.906 c 0,3.569 -0.346,4.158 -2.495,4.158 -1.216,0 -2.263,-0.195 -2.845,-0.48 -0.388,-0.19 -0.687,-0.613 -0.505,-0.637 0.225,-0.03 0.735,-0.138 1.006,-0.506 0.349,-0.475 0.337,-1.542 0.337,-1.542 0,0 0.201,-2.94 -0.469,-3.305 -0.459,-0.25 -1.089,0.261 -2.442,2.599 -0.693,1.197 -1.217,2.521 -1.217,2.521 0,0 -0.1,0.247 -0.281,0.38 -0.218,0.16 -0.652,0.138 -0.652,0.138 l -2.911,0 c 0,0 -0.685,0.038 -0.863,-0.173 -0.159,-0.188 -0.013,-0.577 -0.013,-0.577 0,0 2.535,-5.932 5.406,-8.921 C -2.989,-0.18 0,0 0,0"
             inkscape:connector-curvature="0"
             id="path144"
             style="fill:#ffffff;fill-opacity:1;fill-rule:nonzero;stroke:none" /></g><g
           transform="translate(5.787,24.9442)"
           id="g146"><path
             d="M 0,0 C 0,0 1.334,-0.174 2.334,0 L 7.467,-8.351 12.556,0 c 0,0 1.131,-0.13 2.48,0 l -6.482,-10.744 0.174,-8.09 c 0,0 -1.087,0.174 -2.305,0 L 6.467,-10.7 0,0 z"
             inkscape:connector-curvature="0"
             id="path148"
             style="fill:#ffffff;fill-opacity:1;fill-rule:nonzero;stroke:none" /></g><g
           transform="translate(24.6009,24.6274)"
           id="g150"><path
             d="m 0,0 c 1.658,-0.178 0.826,-1.957 0.565,-3.306 -0.261,-1.348 -2.479,-11.396 -2.479,-11.396 0,0 -0.413,0.283 -0.761,0.109 0,0 0.957,11.048 1.196,12.875 C -1.24,0.109 -0.609,0.065 0,0"
             inkscape:connector-curvature="0"
             id="path152"
             style="fill:#ffffff;fill-opacity:1;fill-rule:nonzero;stroke:none" /></g><g
           transform="translate(22.9979,7.0406)"
           id="g154"><path
             d="m 0,0 c 0,-0.673 -0.545,-1.218 -1.218,-1.218 -0.673,0 -1.218,0.545 -1.218,1.218 0,0.673 0.545,1.218 1.218,1.218 C -0.545,1.218 0,0.673 0,0"
             inkscape:connector-curvature="0"
             id="path156"
             style="fill:#ffffff;fill-opacity:1;fill-rule:nonzero;stroke:none" /></g></g></g></g></svg>